<svg xmlns="http://www.w3.org/2000/svg" viewBox="0 0 360.6 120">
  <!-- Lockup edi.md — monogramma + wordmark (Inter convertito in path, nessuna dipendenza font) -->
  <rect x="80" y="0" width="40" height="40" fill="#c73a00"/>
  <rect x="0" y="80" width="40" height="40" fill="#c73a00"/>
  <rect x="0" y="0" width="90" height="90" fill="#f54e00"/>
  <rect x="30" y="30" width="90" height="90" fill="#26251e"/>
  <rect x="20" y="20" width="80" height="80" fill="#ffffff"/>
  <rect x="40" y="40" width="40" height="10" fill="#f54e00"/>
  <rect x="40" y="70" width="60" height="10" fill="#26251e"/>
  <path fill="#26251e" d="M162.078125 80.49609375Q156.3828125 80.49609375 152.251953125 77.96484375Q148.12109375 75.43359375 145.888671875 70.8984375Q143.65625 66.36328125 143.65625 60.31640625Q143.65625 54.26953125 145.8359375 49.6640625Q148.015625 45.05859375 152.005859375 42.45703125Q155.99609375 39.85546875 161.33984375 39.85546875Q164.46875 39.85546875 167.509765625 40.892578125Q170.55078125 41.9296875 173.029296875 44.232421875Q175.5078125 46.53515625 176.984375 50.296875Q178.4609375 54.05859375 178.4609375 59.5078125V62.14453125H147.9453125V56.80078125H175.05078125L172.09765625 58.76953125Q172.09765625 54.90234375 170.884765625 51.896484375Q169.671875 48.890625 167.28125 47.185546875Q164.890625 45.48046875 161.33984375 45.48046875Q157.7890625 45.48046875 155.2578125 47.220703125Q152.7265625 48.9609375 151.390625 51.755859375Q150.0546875 54.55078125 150.0546875 57.75V61.30078125Q150.0546875 65.66015625 151.56640625 68.701171875Q153.078125 71.7421875 155.802734375 73.306640625Q158.52734375 74.87109375 162.11328125 74.87109375Q164.43359375 74.87109375 166.33203125 74.203125Q168.23046875 73.53515625 169.6015625 72.181640625Q170.97265625 70.828125 171.7109375 68.82421875L177.828125 70.51171875Q176.9140625 73.46484375 174.734375 75.71484375Q172.5546875 77.96484375 169.337890625 79.23046875Q166.12109375 80.49609375 162.078125 80.49609375Z M200.10171875 80.49609375Q195.215 80.49609375 191.45328125 78.0Q187.6915625 75.50390625 185.5821875 70.93359375Q183.4728125 66.36328125 183.4728125 60.10546875Q183.4728125 53.8828125 185.599765625 49.330078125Q187.72671875 44.77734375 191.4884375 42.31640625Q195.25015625 39.85546875 200.136875 39.85546875Q203.96890625 39.85546875 206.21890625 41.12109375Q208.46890625 42.38671875 209.681796875 43.986328125Q210.8946875 45.5859375 211.5275 46.640625H212.0196875V27.26953125H218.3478125V79.65234375H212.230625V73.5703125H211.5275Q210.8946875 74.66015625 209.646640625 76.294921875Q208.39859375 77.9296875 206.131015625 79.212890625Q203.8634375 80.49609375 200.10171875 80.49609375ZM201.0509375 74.8359375Q204.636875 74.8359375 207.0978125 72.955078125Q209.55875 71.07421875 210.824375 67.734375Q212.09 64.39453125 212.09 60.03515625Q212.09 55.67578125 210.841953125 52.423828125Q209.59390625 49.171875 207.13296875 47.34375Q204.67203125 45.515625 201.0509375 45.515625Q197.324375 45.515625 194.845859375 47.44921875Q192.36734375 49.3828125 191.136875 52.669921875Q189.90640625 55.95703125 189.90640625 60.03515625Q189.90640625 64.1484375 191.154453125 67.505859375Q192.4025 70.86328125 194.89859375 72.849609375Q197.3946875 74.8359375 201.0509375 74.8359375Z M227.2971875 79.65234375V40.34765625H233.6253125V79.65234375ZM230.49640625 33.9140625Q228.7034375 33.9140625 227.40265625 32.68359375Q226.101875 31.453125 226.101875 29.73046875Q226.101875 27.97265625 227.40265625 26.759765625Q228.7034375 25.546875 230.49640625 25.546875Q232.32453125 25.546875 233.6253125 26.759765625Q234.92609375 27.97265625 234.92609375 29.73046875Q234.92609375 31.453125 233.6253125 32.68359375Q232.32453125 33.9140625 230.49640625 33.9140625Z"/>
  <path fill="#f54e00" d="M247.39109375 80.109375Q245.42234375 80.109375 244.033671875 78.720703125Q242.645 77.33203125 242.645 75.36328125Q242.645 73.39453125 244.033671875 72.005859375Q245.42234375 70.6171875 247.39109375 70.6171875Q249.35984375 70.6171875 250.748515625 72.005859375Q252.1371875 73.39453125 252.1371875 75.36328125Q252.1371875 77.33203125 250.748515625 78.720703125Q249.35984375 80.109375 247.39109375 80.109375Z M261.156875 79.65234375V40.34765625H267.30921875L267.344375 49.13671875H266.8521875Q267.66078125 45.9375 269.401015625 43.845703125Q271.14125 41.75390625 273.479140625 40.69921875Q275.81703125 39.64453125 278.34828125 39.64453125Q282.63734375 39.64453125 285.291640625 42.28125Q287.9459375 44.91796875 288.719375 49.20703125H287.875625Q288.57875 46.25390625 290.44203125 44.109375Q292.3053125 41.96484375 294.959609375 40.8046875Q297.61390625 39.64453125 300.7428125 39.64453125Q304.15296875 39.64453125 306.96546875 41.12109375Q309.77796875 42.59765625 311.447890625 45.5859375Q313.1178125 48.57421875 313.1178125 53.14453125V79.65234375H306.7896875V53.3203125Q306.7896875 49.06640625 304.3990625 47.23828125Q302.0084375 45.41015625 298.844375 45.41015625Q296.20765625 45.41015625 294.291640625 46.517578125Q292.375625 47.625 291.338515625 49.55859375Q290.30140625 51.4921875 290.30140625 53.98828125V79.65234375H283.97328125V52.6875Q283.97328125 49.41796875 281.79359375 47.4140625Q279.61390625 45.41015625 276.2740625 45.41015625Q273.98890625 45.41015625 271.967421875 46.482421875Q269.9459375 47.5546875 268.71546875 49.6640625Q267.485 51.7734375 267.485 54.90234375V79.65234375Z M336.79765625000005 80.49609375Q331.91093750000005 80.49609375 328.14921875000005 78.0Q324.38750000000005 75.50390625 322.27812500000005 70.93359375Q320.16875000000005 66.36328125 320.16875000000005 60.10546875Q320.16875000000005 53.8828125 322.29570312500005 49.330078125Q324.42265625000005 44.77734375 328.18437500000005 42.31640625Q331.94609375000005 39.85546875 336.83281250000005 39.85546875Q340.66484375000005 39.85546875 342.91484375000005 41.12109375Q345.16484375000005 42.38671875 346.37773437500005 43.986328125Q347.59062500000005 45.5859375 348.22343750000005 46.640625H348.71562500000005V27.26953125H355.04375000000005V79.65234375H348.92656250000005V73.5703125H348.22343750000005Q347.59062500000005 74.66015625 346.34257812500005 76.294921875Q345.09453125000005 77.9296875 342.82695312500005 79.212890625Q340.55937500000005 80.49609375 336.79765625000005 80.49609375ZM337.74687500000005 74.8359375Q341.33281250000005 74.8359375 343.79375000000005 72.955078125Q346.25468750000005 71.07421875 347.52031250000005 67.734375Q348.78593750000005 64.39453125 348.78593750000005 60.03515625Q348.78593750000005 55.67578125 347.53789062500005 52.423828125Q346.28984375000005 49.171875 343.82890625000005 47.34375Q341.36796875000005 45.515625 337.74687500000005 45.515625Q334.02031250000005 45.515625 331.54179687500005 47.44921875Q329.06328125000005 49.3828125 327.83281250000005 52.669921875Q326.60234375000005 55.95703125 326.60234375000005 60.03515625Q326.60234375000005 64.1484375 327.85039062500005 67.505859375Q329.09843750000005 70.86328125 331.59453125000005 72.849609375Q334.09062500000005 74.8359375 337.74687500000005 74.8359375Z"/>
</svg>
